<?xml version="1.0" standalone="no"?>
<!DOCTYPE svg PUBLIC "-//W3C//DTD SVG 20010904//EN"
 "http://www.w3.org/TR/2001/REC-SVG-20010904/DTD/svg10.dtd">
<svg version="1.0" xmlns="http://www.w3.org/2000/svg"
 width="1500.000000pt" height="1500.000000pt" viewBox="0 0 1500.000000 1500.000000"
 preserveAspectRatio="xMidYMid meet">
<metadata>
Created by potrace 1.14, written by Peter Selinger 2001-2017
</metadata>
<g transform="translate(0.000000,1500.000000) scale(0.100000,-0.100000)"
fill="#000000" stroke="none">
<path d="M6763 9445 c-82 -18 -155 -58 -220 -122 -116 -113 -162 -294 -115
-449 30 -98 61 -139 236 -313 l155 -155 -163 -167 c-143 -145 -169 -176 -201
-244 -32 -66 -38 -90 -43 -165 -11 -193 82 -351 257 -438 67 -33 83 -37 171
-40 107 -5 166 9 250 55 25 14 159 139 303 282 200 198 256 249 250 226 -4
-16 -8 -77 -8 -135 0 -97 2 -110 31 -170 45 -95 120 -172 211 -217 69 -34 85
-38 173 -41 81 -4 109 -1 164 18 254 84 374 373 258 620 -33 71 -131 169 -202
202 -103 48 -241 60 -328 27 -16 -6 74 92 235 253 232 234 266 271 293 331
118 251 6 527 -255 627 -80 31 -214 32 -296 2 -90 -32 -134 -66 -302 -230
l-158 -156 -167 167 c-139 138 -178 171 -232 196 -108 51 -186 60 -297 36z"/>
<path d="M5203 6804 c-7 -19 21 -83 54 -118 36 -39 62 -46 170 -46 l95 0 -7
-37 c-17 -92 -98 -198 -180 -237 -35 -17 -115 -22 -115 -8 0 5 36 37 81 72 91
72 117 110 100 146 -16 35 -61 31 -174 -16 -52 -22 -106 -40 -119 -40 -37 0
-68 -11 -68 -24 0 -7 13 -30 29 -52 42 -57 48 -87 22 -120 -25 -32 -27 -76 -5
-98 9 -9 32 -16 55 -16 21 0 39 -4 39 -8 0 -18 -266 -237 -381 -313 -57 -38
-60 -42 -57 -77 5 -57 34 -54 192 17 142 65 176 73 176 42 0 -10 18 -35 40
-55 72 -65 135 -39 135 56 0 42 -4 53 -27 73 -16 13 -28 28 -28 33 0 11 101
56 145 66 54 11 57 3 63 -169 4 -139 3 -162 -13 -191 -23 -43 -39 -48 -97 -28
-27 9 -52 14 -54 11 -9 -9 25 -52 67 -87 39 -31 43 -32 105 -25 100 10 99 8
97 301 l-2 242 47 16 c26 9 101 21 167 27 66 6 126 13 133 15 24 7 11 35 -23
50 -68 28 -116 28 -226 -1 l-104 -27 -53 21 c-61 24 -122 28 -122 7 0 -7 9
-25 20 -39 11 -14 20 -27 20 -30 0 -9 -278 -117 -302 -117 -14 0 -31 -7 -39
-16 -11 -14 -100 -64 -114 -64 -21 0 8 30 88 90 50 38 117 90 147 115 50 42
146 94 259 141 94 39 190 179 199 292 4 50 3 54 -33 88 -60 56 -122 82 -227
94 -88 10 -138 28 -138 50 0 16 -30 11 -37 -6z m0 -375 c-20 -21 -37 -30 -48
-25 -21 8 -11 23 28 40 50 22 54 19 20 -15z"/>
<path d="M6711 6785 c-19 -8 -72 -39 -118 -67 -72 -44 -88 -50 -104 -40 -26
16 -29 15 -29 -8 0 -49 69 -140 106 -140 27 0 54 39 54 76 0 28 8 44 34 70 29
29 76 47 76 29 0 -18 -34 -82 -69 -128 -23 -30 -41 -61 -41 -70 0 -24 -49 -59
-159 -116 -55 -28 -103 -56 -106 -61 -9 -15 31 -30 83 -30 35 0 67 9 108 30
32 16 60 27 62 25 2 -2 -7 -39 -21 -82 -35 -105 -47 -177 -53 -308 -4 -79 -1
-125 9 -162 16 -61 16 -61 -72 -42 l-50 11 5 41 c7 54 -3 80 -61 147 -47 54
-47 55 -41 111 4 47 2 59 -13 73 -19 17 -120 56 -146 56 -21 0 -19 -27 5 -61
12 -15 30 -57 41 -91 24 -73 43 -111 75 -153 l23 -30 -35 -70 c-20 -39 -34
-80 -32 -95 3 -25 4 -25 123 -31 66 -4 131 -9 145 -13 14 -3 106 -13 205 -21
99 -9 209 -22 245 -30 153 -36 273 -29 377 21 46 22 75 56 60 71 -3 2 -74 9
-159 13 -136 8 -222 18 -310 36 l-28 6 39 76 39 77 -10 80 c-18 155 -50 340
-63 372 -20 48 -46 58 -117 43 -32 -7 -60 -11 -63 -8 -11 11 39 71 84 100 28
18 53 39 56 47 8 21 -18 42 -56 45 -19 2 -38 4 -43 5 -4 0 19 30 53 66 33 36
61 72 61 79 0 47 -106 79 -169 51z m8 -228 c-2 -1 -13 -9 -24 -17 -19 -14 -19
-14 -6 3 7 9 18 17 24 17 6 0 8 -1 6 -3z m70 -314 c13 -45 7 -53 -52 -69 -23
-7 -52 -15 -64 -19 -40 -13 -28 31 22 80 56 56 80 58 94 8z m25 -211 c10 -36
2 -52 -16 -34 -14 14 -67 15 -121 3 -36 -9 -38 -8 -35 12 4 26 84 58 133 54
24 -2 31 -8 39 -35z m-14 -117 c-18 -21 -78 -37 -125 -33 -22 2 -33 6 -25 10
30 11 155 44 159 41 2 -1 -2 -9 -9 -18z m-90 -155 c-14 -4 -34 -8 -45 -8 l-20
-1 20 9 c11 5 31 8 45 8 l25 0 -25 -8z"/>
<path d="M9769 6693 c-6 -16 -29 -65 -50 -110 -41 -86 -45 -103 -29 -134 14
-26 30 -24 103 13 34 17 91 41 127 53 60 21 65 25 68 54 3 26 -1 33 -25 42
-15 6 -49 9 -74 6 l-47 -4 -6 41 c-11 68 -47 89 -67 39z"/>
<path d="M8105 6647 c8 -38 -14 -99 -47 -134 l-21 -23 28 0 c16 0 54 -5 86
-12 50 -10 60 -9 83 5 16 11 26 27 26 41 0 45 -103 156 -145 156 -13 0 -15 -7
-10 -33z"/>
<path d="M9280 6596 c0 -8 18 -36 40 -62 l41 -49 -38 -34 c-59 -52 -273 -211
-283 -211 -17 0 -11 -20 15 -45 43 -44 65 -34 177 73 138 132 168 152 168 112
0 -61 -124 -280 -217 -384 -30 -33 -34 -43 -29 -74 8 -54 26 -68 63 -48 40 20
76 63 148 174 l60 93 3 -36 c6 -64 -51 -218 -101 -272 -15 -17 -32 -23 -64
-23 -50 0 -58 -20 -18 -46 35 -23 83 -4 134 51 75 82 115 186 127 335 5 66 13
105 30 138 26 52 24 60 -10 44 -23 -10 -24 -9 -30 35 -13 94 -11 98 45 121 42
18 50 25 47 44 -2 19 -13 25 -62 37 -57 14 -59 13 -76 -9 l-17 -23 -65 37
c-70 39 -88 44 -88 22z"/>
<path d="M7890 6384 c-25 -25 -60 -55 -78 -66 -34 -21 -34 -21 -27 -77 12
-106 19 -110 115 -61 122 62 270 111 270 91 0 -22 -247 -223 -297 -242 -25 -9
-31 -29 -10 -29 40 0 159 45 347 130 58 26 132 53 165 60 142 28 140 80 -5
150 -59 28 -71 30 -129 25 -35 -4 -107 -17 -160 -30 -53 -12 -113 -26 -133
-29 l-37 -7 18 43 c45 103 33 116 -39 42z"/>
<path d="M9804 6365 c-8 -20 -41 -64 -74 -96 l-58 -60 -7 -77 c-3 -42 -12
-132 -20 -199 -19 -157 -19 -179 5 -230 16 -35 24 -43 46 -43 38 0 119 85 164
172 40 77 32 75 157 32 68 -24 115 -55 124 -83 7 -19 154 -37 174 -21 51 43
-23 97 -302 220 -29 13 -53 27 -53 32 0 23 37 60 97 94 89 52 153 113 153 146
0 36 -32 60 -87 65 -44 5 -50 3 -71 -26 -56 -76 -235 -207 -267 -195 -14 6
-75 96 -75 112 0 11 75 42 150 62 55 14 90 36 90 55 0 14 -66 57 -108 70 -19
5 -25 1 -38 -30z m-11 -437 c16 -12 15 -16 -8 -50 -41 -60 -69 -42 -41 26 16
39 23 42 49 24z"/>
<path d="M7810 5999 c-8 -5 -34 -9 -57 -9 -67 0 -95 -15 -91 -48 5 -47 71 -71
226 -82 72 -4 135 -11 140 -14 5 -3 38 -10 74 -16 59 -9 221 -72 274 -106 50
-33 120 -35 253 -8 172 34 202 57 133 97 -23 13 -83 24 -209 38 -98 11 -214
29 -258 41 -145 38 -248 58 -362 70 -87 9 -110 14 -102 24 13 16 -2 26 -21 13z"/>
</g>
</svg>
